<svg width="32" height="32" viewBox="0 0 32 32" fill="none" xmlns="http://www.w3.org/2000/svg">
<path d="M0 16C0 7.16344 7.16344 0 16 0C24.8366 0 32 7.16344 32 16C32 24.8366 24.8366 32 16 32C7.16344 32 0 24.8366 0 16Z" fill="#0077B5"/>
<path fill-rule="evenodd" clip-rule="evenodd" d="M11.5458 9.8818C11.5458 10.9279 10.7584 11.7649 9.49413 11.7649H9.47096C8.25365 11.7649 7.46667 10.9279 7.46667 9.8818C7.46667 8.8136 8.27761 8 9.51803 8C10.7584 8 11.5223 8.8136 11.5458 9.8818ZM11.307 13.2519V24.1464H7.68109V13.2519H11.307ZM24.3835 24.1464L24.3836 17.8998C24.3836 14.5535 22.5948 12.9961 20.2088 12.9961C18.2836 12.9961 17.4217 14.0535 16.9405 14.7953V13.2522H13.3141C13.3619 14.2745 13.3141 24.1467 13.3141 24.1467H16.9405V18.0623C16.9405 17.7367 16.964 17.4119 17.0599 17.1788C17.3219 16.5283 17.9186 15.8548 18.9203 15.8548C20.233 15.8548 20.7576 16.8538 20.7576 18.3178V24.1464H24.3835Z" fill="white"/>
</svg>
